<svg id="sigma-icon" xmlns="http://www.w3.org/2000/svg" width="128.7" height="128.6" viewBox="0 0 128.7 128.6">
  <path id="Path_720" data-name="Path 720" d="M44.3,113.6c-11.2,0-18.1-9-18.1-21.7C26.2,74.6,36.3,51,54.4,51c13.1,0,17.5,11.6,17.5,21.3C71.9,90.6,60.9,113.6,44.3,113.6Z"/>
  <path id="Path_721" data-name="Path 721" d="M128.7,64.3a64.315,64.315,0,0,1-64.3,64.3,53.744,53.744,0,0,1-7-.4c22.5-7.4,37-30.1,37-53.1,0-7.2-2.9-19.8-11.2-25.5l.2-1c11.6,1.3,19.8,1.9,24,1.9l2.8-16.7H56.5c-29,0-50,23.5-52.8,52A63.038,63.038,0,0,1,0,64.3a64.35,64.35,0,0,1,128.7,0Z"/>
</svg>
