<?xml version="1.0" encoding="utf-8"?>
<!-- Generator: Adobe Illustrator 22.1.0, SVG Export Plug-In . SVG Version: 6.00 Build 0)  -->
<svg version="1.0" id="Layer_1" xmlns="http://www.w3.org/2000/svg" xmlns:xlink="http://www.w3.org/1999/xlink" x="0px" y="0px"
	 width="374.3px" height="414.1px" viewBox="0 0 374.3 414.1" style="enable-background:new 0 0 374.3 414.1;" xml:space="preserve"
	>
<g>
	<g>
		<path style="fill:#FFFFFF;" d="M178.1,321.4v84c0,6.5-6.1,10.7-11.3,7.8L4.3,321.4c-2.6-1.5-4.3-4.5-4.3-7.8v-181
			c0-6.5,6.1-10.7,11.3-7.8l82.5,46.6C86.9,185.2,83,200.9,83,217.5C83,272,124.8,316.7,178.1,321.4z"/>
	</g>
	<g>
		<path style="fill:#FFFFFF;" d="M374.3,132.6v181c0,3.3-1.7,6.3-4.3,7.8l-162.5,91.7c-5.2,2.9-11.3-1.3-11.3-7.8v-83.9
			c53.4-4.5,95.4-49.3,95.4-103.9c0-16.6-3.9-32.4-10.8-46.3l82.2-46.4C368.2,121.8,374.3,126.1,374.3,132.6z"/>
	</g>
	<g>
		<path style="fill:#FFFFFF;" d="M359.9,101.5l-90,52.2c-19.1-24.7-48.9-40.5-82.5-40.5c-33.6,0-63.5,15.9-82.6,40.6l-90.3-52.3
			c-5.8-3.4-5.6-12.8,0.4-15.8l169.4-85c2-1,4.3-1,6.3,0l169,85C365.4,88.7,365.7,98.1,359.9,101.5z"/>
	</g>
	<g>
		<g>
			<path style="fill:#FFFFFF;" d="M239.8,164.6c-1.1-1.1-2.3-1.6-3.8-1.6h-97.3c-1.5,0-2.7,0.5-3.8,1.6c-1.1,1.1-1.6,2.3-1.6,3.8
				v64.9c0,4.8,0.9,9.6,2.8,14.4c1.9,4.8,4.2,9,7,12.7c2.8,3.7,6.1,7.3,10,10.8c3.9,3.5,7.4,6.4,10.7,8.7c3.3,2.3,6.7,4.5,10.2,6.5
				c3.5,2.1,6.1,3.5,7.6,4.2c1.5,0.7,2.7,1.3,3.6,1.7c0.7,0.3,1.4,0.5,2.2,0.5c0.8,0,1.5-0.2,2.2-0.5c0.9-0.4,2.1-1,3.6-1.7
				c1.5-0.7,4-2.1,7.6-4.2c3.5-2.1,7-4.2,10.2-6.5c3.3-2.3,6.8-5.2,10.7-8.7c3.9-3.5,7.2-7.1,10-10.8c2.8-3.7,5.1-7.9,7-12.7
				c1.9-4.8,2.8-9.6,2.8-14.4v-64.9C241.4,167,240.9,165.7,239.8,164.6z M225.2,233.3c0,9.9-6.6,20.1-19.9,30.4
				c-5.3,4.2-11.3,8-18,11.6v-96.1h37.9V233.3z"/>
		</g>
	</g>
</g>
</svg>
